<svg width="1220" height="924" viewBox="0 0 1220 924" fill="none" xmlns="http://www.w3.org/2000/svg">
<g filter="url(#filter0_d_17_2)">
<rect x="10" y="2" width="1200" height="1174" fill="white"/>
</g>
<path d="M108 0L108 924" stroke="#E9ABAE" stroke-width="2"/>
<path d="M10 116H1210" stroke="#86C5E4" stroke-width="2"/>
<path d="M10 146H1210" stroke="#86C5E4" stroke-width="2"/>
<path d="M10 176H1210" stroke="#86C5E4" stroke-width="2"/>
<path d="M10 206H1210" stroke="#86C5E4" stroke-width="2"/>
<path d="M10 236H1210" stroke="#86C5E4" stroke-width="2"/>
<path d="M10 266H1210" stroke="#86C5E4" stroke-width="2"/>
<path d="M10 296H1210" stroke="#86C5E4" stroke-width="2"/>
<path d="M10 326H1210" stroke="#86C5E4" stroke-width="2"/>
<path d="M10 356H1210" stroke="#86C5E4" stroke-width="2"/>
<path d="M10 386H1210" stroke="#86C5E4" stroke-width="2"/>
<path d="M10 416H1210" stroke="#86C5E4" stroke-width="2"/>
<path d="M10 446H1210" stroke="#86C5E4" stroke-width="2"/>
<path d="M10 476H1210" stroke="#86C5E4" stroke-width="2"/>
<path d="M10 506H1210" stroke="#86C5E4" stroke-width="2"/>
<path d="M10 536H1210" stroke="#86C5E4" stroke-width="2"/>
<path d="M10 566H1210" stroke="#86C5E4" stroke-width="2"/>
<path d="M10 596H1210" stroke="#86C5E4" stroke-width="2"/>
<path d="M10 626H1210" stroke="#86C5E4" stroke-width="2"/>
<path d="M10 656H1210" stroke="#86C5E4" stroke-width="2"/>
<path d="M10 686H1210" stroke="#86C5E4" stroke-width="2"/>
<path d="M10 716H1210" stroke="#86C5E4" stroke-width="2"/>
<path d="M10 746H1210" stroke="#86C5E4" stroke-width="2"/>
<path d="M10 776H1210" stroke="#86C5E4" stroke-width="2"/>
<path d="M10 806H1210" stroke="#86C5E4" stroke-width="2"/>
<path d="M10 836H1210" stroke="#86C5E4" stroke-width="2"/>
<path d="M10 866H1210" stroke="#86C5E4" stroke-width="2"/>
<path d="M10 896H1210" stroke="#86C5E4" stroke-width="2"/>
<defs>
<filter id="filter0_d_17_2" x="0" y="2" width="1220" height="1194" filterUnits="userSpaceOnUse" color-interpolation-filters="sRGB">
<feFlood flood-opacity="0" result="BackgroundImageFix"/>
<feColorMatrix in="SourceAlpha" type="matrix" values="0 0 0 0 0 0 0 0 0 0 0 0 0 0 0 0 0 0 127 0" result="hardAlpha"/>
<feOffset dy="10"/>
<feGaussianBlur stdDeviation="5"/>
<feComposite in2="hardAlpha" operator="out"/>
<feColorMatrix type="matrix" values="0 0 0 0 0 0 0 0 0 0 0 0 0 0 0 0 0 0 0.25 0"/>
<feBlend mode="normal" in2="BackgroundImageFix" result="effect1_dropShadow_17_2"/>
<feBlend mode="normal" in="SourceGraphic" in2="effect1_dropShadow_17_2" result="shape"/>
</filter>
</defs>
</svg>
