<svg width="26" height="9" viewBox="0 0 26 9" fill="none" xmlns="http://www.w3.org/2000/svg">
<path d="M23.75 3.03125C24.2188 3.09375 24.5469 3.20312 24.7344 3.35938C24.9531 3.51562 25.0938 3.71875 25.1562 3.96875C25.25 4.1875 25.2812 4.4375 25.25 4.71875C25.2188 5 25.2031 5.28125 25.2031 5.5625C24.4219 6.09375 23.3438 6.46875 21.9688 6.6875C20.5938 6.875 19.1562 7.01562 17.6562 7.10938C16.1562 7.17188 14.7031 7.20312 13.2969 7.20312C11.8906 7.20312 10.7812 7.25 9.96875 7.34375C8.28125 7.53125 6.96875 7.71875 6.03125 7.90625C5.125 8.0625 4.5 8.21875 4.15625 8.375C3.5625 8.34375 3.09375 8.23438 2.75 8.04688C2.40625 7.85938 2.125 7.64062 1.90625 7.39062C1.6875 7.10938 1.5 6.79688 1.34375 6.45312C1.1875 6.10938 1 5.75 0.78125 5.375C0.90625 5.125 0.9375 4.76562 0.875 4.29688C0.8125 3.82812 0.625 3.46875 0.3125 3.21875C0.5625 3.1875 0.75 3.01562 0.875 2.70312C1 2.35938 1 2.10938 0.875 1.95312C1.375 1.82812 1.90625 1.75 2.46875 1.71875C3.0625 1.65625 3.64062 1.60938 4.20312 1.57812C4.76562 1.54688 5.29688 1.5 5.79688 1.4375C6.32812 1.34375 6.78125 1.20312 7.15625 1.01562C8.71875 0.984375 10.3281 0.9375 11.9844 0.875C13.6719 0.8125 15.25 0.75 16.7188 0.6875C17.25 0.84375 17.875 0.9375 18.5938 0.96875C19.3125 0.96875 20.0156 1.01562 20.7031 1.10938C21.3906 1.17188 22.0156 1.34375 22.5781 1.625C23.1406 1.90625 23.5312 2.375 23.75 3.03125Z" fill="black"/>
</svg>
