<svg width="26" height="26" viewBox="0 0 26 26" fill="none" xmlns="http://www.w3.org/2000/svg">
<path d="M24.0078 12.0312C24.4766 12.0938 24.8047 12.2031 24.9922 12.3594C25.2109 12.5156 25.3516 12.7188 25.4141 12.9688C25.4766 13.1875 25.4922 13.4375 25.4609 13.7188C25.4609 14 25.4609 14.2812 25.4609 14.5625C24.9922 14.875 24.3984 15.1406 23.6797 15.3594C22.9922 15.5469 22.2266 15.7031 21.3828 15.8281C20.5391 15.9219 19.6484 16 18.7109 16.0625C17.8047 16.0938 16.8984 16.125 15.9922 16.1562C15.8359 17.0312 15.6484 17.9688 15.4297 18.9688C15.2109 19.9375 14.8516 21.125 14.3516 22.5312C13.9141 23.5 13.4141 24.1875 12.8516 24.5938C12.2891 24.9688 11.6953 25.1562 11.0703 25.1562C10.4766 25.1562 9.86719 25.0156 9.24219 24.7344C8.61719 24.4219 8.02344 24.0781 7.46094 23.7031C7.39844 23.2969 7.38281 22.8125 7.41406 22.25C7.44531 21.6875 7.49219 21.0938 7.55469 20.4688C7.61719 19.8125 7.69531 19.1719 7.78906 18.5469C7.91406 17.8906 8.02344 17.25 8.11719 16.625C7.11719 16.7812 6.30469 16.9219 5.67969 17.0469C5.08594 17.1719 4.66406 17.2812 4.41406 17.375C3.82031 17.3438 3.35156 17.2344 3.00781 17.0469C2.66406 16.8594 2.38281 16.6406 2.16406 16.3906C1.94531 16.1094 1.75781 15.7969 1.60156 15.4531C1.44531 15.1094 1.25781 14.75 1.03906 14.375C1.16406 14.125 1.17969 13.7656 1.08594 13.2969C1.02344 12.8281 0.851562 12.4688 0.570312 12.2188C0.820312 12.1875 1.00781 12.0156 1.13281 11.7031C1.25781 11.3594 1.25781 11.1094 1.13281 10.9531C1.63281 10.8281 2.16406 10.75 2.72656 10.7188C3.32031 10.6562 3.89844 10.6094 4.46094 10.5781C5.02344 10.5469 5.55469 10.5 6.05469 10.4375C6.55469 10.3438 6.99219 10.2031 7.36719 10.0156C7.80469 10.0156 8.21094 10.0156 8.58594 10.0156C8.99219 9.98438 9.41406 9.96875 9.85156 9.96875C9.94531 9.5625 9.92969 9.21875 9.80469 8.9375C9.67969 8.65625 9.64844 8.40625 9.71094 8.1875C9.77344 8.03125 9.88281 7.9375 10.0391 7.90625C10.2266 7.84375 10.3359 7.73438 10.3672 7.57812C10.4922 7.17188 10.5234 6.85938 10.4609 6.64062C10.3984 6.39062 10.4609 6.07812 10.6484 5.70312C10.8047 5.45312 11.0078 5.0625 11.2578 4.53125C11.5391 4 11.6484 3.4375 11.5859 2.84375C11.8984 2.625 12.1797 2.375 12.4297 2.09375C12.7109 1.8125 12.9922 1.5625 13.2734 1.34375C13.5859 1.09375 13.9141 0.890625 14.2578 0.734375C14.6328 0.546875 15.0859 0.453125 15.6172 0.453125C15.8984 0.796875 16.1016 1.125 16.2266 1.4375C16.3516 1.75 16.4766 2.04688 16.6016 2.32812C16.7266 2.60938 16.8828 2.875 17.0703 3.125C17.2891 3.375 17.6016 3.60938 18.0078 3.82812C18.0078 4.10938 17.9609 4.45312 17.8672 4.85938C17.7734 5.26562 17.6953 5.67188 17.6328 6.07812C17.5703 6.48438 17.5547 6.84375 17.5859 7.15625C17.6172 7.46875 17.7734 7.6875 18.0547 7.8125C17.9297 8.15625 17.8047 8.5 17.6797 8.84375C17.5859 9.15625 17.4922 9.46875 17.3984 9.78125C17.9297 9.875 18.5391 9.9375 19.2266 9.96875C19.9141 9.96875 20.5703 10.0312 21.1953 10.1562C21.8203 10.25 22.3828 10.4375 22.8828 10.7188C23.4141 10.9688 23.7891 11.4062 24.0078 12.0312Z" fill="black"/>
</svg>
